<?xml version="1.0" encoding="UTF-8" standalone="no"?>
<!-- Created with Inkscape (http://www.inkscape.org/) -->

<svg
   version="1.1"
   id="svg2"
   xml:space="preserve"
   width="326.72806"
   height="202.5714"
   viewBox="0 0 326.72806 202.5714"
   xmlns="http://www.w3.org/2000/svg"
   xmlns:svg="http://www.w3.org/2000/svg"><defs
     id="defs6"><clipPath
       clipPathUnits="userSpaceOnUse"
       id="clipPath120"><path
         d="M 29.405526,26.587496 H 211.50871 V 147.37069 H 29.405526 Z"
         id="path118" /></clipPath><clipPath
       clipPathUnits="userSpaceOnUse"
       id="clipPath130"><path
         d="M 29.405526,26.587496 H 211.50871 V 147.37069 H 29.405526 Z"
         id="path128" /></clipPath><clipPath
       clipPathUnits="userSpaceOnUse"
       id="clipPath176"><path
         d="m 214.69552,26.587496 h 30.35053 V 147.37069 h -30.35053 z"
         id="path174" /></clipPath><clipPath
       clipPathUnits="userSpaceOnUse"
       id="clipPath186"><path
         d="m 214.69552,26.587496 h 30.35053 V 147.37069 h -30.35053 z"
         id="path184" /></clipPath></defs><g
     id="g8"
     transform="matrix(1.3333333,0,0,-1.3333333,0,202.5714)"><path
       d="M 0,0 H 245.04605 V 151.92855 H 0 Z"
       style="fill:#ffffff;fill-opacity:1;fill-rule:nonzero;stroke:none"
       id="path10" /><path
       d="M 29.405526,26.587496 H 211.50871 V 147.37069 H 29.405526 Z"
       style="fill:#ffffff;fill-opacity:1;fill-rule:nonzero;stroke:none"
       id="path12" /><path
       d="m 29.405526,26.587496 v -4.8"
       style="fill:#262626;fill-opacity:1;fill-rule:nonzero;stroke:#262626;stroke-width:1;stroke-linecap:butt;stroke-linejoin:round;stroke-miterlimit:10;stroke-dasharray:none;stroke-opacity:1"
       id="path14" /><text
       transform="matrix(1,0,0,-1,27.189858,15.10884)"
       style="font-variant:normal;font-size:7.97011px;font-family:'Nimbus Sans L';-inkscape-font-specification:NimbusSanL-Regu;writing-mode:lr-tb;fill:#262626;fill-opacity:1;fill-rule:nonzero;stroke:none"
       id="text18"><tspan
         x="0"
         y="0"
         id="tspan16">3</tspan></text><path
       d="m 88.840182,26.587496 v -4.8"
       style="fill:#262626;fill-opacity:1;fill-rule:nonzero;stroke:#262626;stroke-width:1;stroke-linecap:butt;stroke-linejoin:round;stroke-miterlimit:10;stroke-dasharray:none;stroke-opacity:1"
       id="path20" /><text
       transform="matrix(1,0,0,-1,84.408847,15.10884)"
       style="font-variant:normal;font-size:7.97011px;font-family:'Nimbus Sans L';-inkscape-font-specification:NimbusSanL-Regu;writing-mode:lr-tb;fill:#262626;fill-opacity:1;fill-rule:nonzero;stroke:none"
       id="text24"><tspan
         x="0 4.4234123"
         y="0"
         id="tspan22">10</tspan></text><path
       d="m 202.50833,26.587496 v -4.8"
       style="fill:#262626;fill-opacity:1;fill-rule:nonzero;stroke:#262626;stroke-width:1;stroke-linecap:butt;stroke-linejoin:round;stroke-miterlimit:10;stroke-dasharray:none;stroke-opacity:1"
       id="path26" /><text
       transform="matrix(1,0,0,-1,195.86132,15.10884)"
       style="font-variant:normal;font-size:7.97011px;font-family:'Nimbus Sans L';-inkscape-font-specification:NimbusSanL-Regu;writing-mode:lr-tb;fill:#262626;fill-opacity:1;fill-rule:nonzero;stroke:none"
       id="text30"><tspan
         x="0 4.4234123 8.8468246"
         y="0"
         id="tspan28">100</tspan></text><path
       d="m 43.60708,26.587496 v -3.2"
       style="fill:#262626;fill-opacity:1;fill-rule:nonzero;stroke:#262626;stroke-width:0.8;stroke-linecap:butt;stroke-linejoin:round;stroke-miterlimit:10;stroke-dasharray:none;stroke-opacity:1"
       id="path32" /><path
       d="m 54.622661,26.587496 v -3.2"
       style="fill:#262626;fill-opacity:1;fill-rule:nonzero;stroke:#262626;stroke-width:0.8;stroke-linecap:butt;stroke-linejoin:round;stroke-miterlimit:10;stroke-dasharray:none;stroke-opacity:1"
       id="path34" /><path
       d="m 63.623046,26.587496 v -3.2"
       style="fill:#262626;fill-opacity:1;fill-rule:nonzero;stroke:#262626;stroke-width:0.8;stroke-linecap:butt;stroke-linejoin:round;stroke-miterlimit:10;stroke-dasharray:none;stroke-opacity:1"
       id="path36" /><path
       d="m 71.232764,26.587496 v -3.2"
       style="fill:#262626;fill-opacity:1;fill-rule:nonzero;stroke:#262626;stroke-width:0.8;stroke-linecap:butt;stroke-linejoin:round;stroke-miterlimit:10;stroke-dasharray:none;stroke-opacity:1"
       id="path38" /><path
       d="m 77.824601,26.587496 v -3.2"
       style="fill:#262626;fill-opacity:1;fill-rule:nonzero;stroke:#262626;stroke-width:0.8;stroke-linecap:butt;stroke-linejoin:round;stroke-miterlimit:10;stroke-dasharray:none;stroke-opacity:1"
       id="path40" /><path
       d="m 83.639013,26.587496 v -3.2"
       style="fill:#262626;fill-opacity:1;fill-rule:nonzero;stroke:#262626;stroke-width:0.8;stroke-linecap:butt;stroke-linejoin:round;stroke-miterlimit:10;stroke-dasharray:none;stroke-opacity:1"
       id="path42" /><path
       d="m 123.0577,26.587496 v -3.2"
       style="fill:#262626;fill-opacity:1;fill-rule:nonzero;stroke:#262626;stroke-width:0.8;stroke-linecap:butt;stroke-linejoin:round;stroke-miterlimit:10;stroke-dasharray:none;stroke-opacity:1"
       id="path44" /><path
       d="m 143.07367,26.587496 v -3.2"
       style="fill:#262626;fill-opacity:1;fill-rule:nonzero;stroke:#262626;stroke-width:0.8;stroke-linecap:butt;stroke-linejoin:round;stroke-miterlimit:10;stroke-dasharray:none;stroke-opacity:1"
       id="path46" /><path
       d="m 157.27522,26.587496 v -3.2"
       style="fill:#262626;fill-opacity:1;fill-rule:nonzero;stroke:#262626;stroke-width:0.8;stroke-linecap:butt;stroke-linejoin:round;stroke-miterlimit:10;stroke-dasharray:none;stroke-opacity:1"
       id="path48" /><path
       d="m 168.2908,26.587496 v -3.2"
       style="fill:#262626;fill-opacity:1;fill-rule:nonzero;stroke:#262626;stroke-width:0.8;stroke-linecap:butt;stroke-linejoin:round;stroke-miterlimit:10;stroke-dasharray:none;stroke-opacity:1"
       id="path50" /><path
       d="m 177.29119,26.587496 v -3.2"
       style="fill:#262626;fill-opacity:1;fill-rule:nonzero;stroke:#262626;stroke-width:0.8;stroke-linecap:butt;stroke-linejoin:round;stroke-miterlimit:10;stroke-dasharray:none;stroke-opacity:1"
       id="path52" /><path
       d="m 184.90091,26.587496 v -3.2"
       style="fill:#262626;fill-opacity:1;fill-rule:nonzero;stroke:#262626;stroke-width:0.8;stroke-linecap:butt;stroke-linejoin:round;stroke-miterlimit:10;stroke-dasharray:none;stroke-opacity:1"
       id="path54" /><path
       d="m 191.49274,26.587496 v -3.2"
       style="fill:#262626;fill-opacity:1;fill-rule:nonzero;stroke:#262626;stroke-width:0.8;stroke-linecap:butt;stroke-linejoin:round;stroke-miterlimit:10;stroke-dasharray:none;stroke-opacity:1"
       id="path56" /><path
       d="m 197.30716,26.587496 v -3.2"
       style="fill:#262626;fill-opacity:1;fill-rule:nonzero;stroke:#262626;stroke-width:0.8;stroke-linecap:butt;stroke-linejoin:round;stroke-miterlimit:10;stroke-dasharray:none;stroke-opacity:1"
       id="path58" /><path
       d="m 29.405526,26.587496 h -4.8"
       style="fill:#262626;fill-opacity:1;fill-rule:nonzero;stroke:#262626;stroke-width:1;stroke-linecap:butt;stroke-linejoin:round;stroke-miterlimit:10;stroke-dasharray:none;stroke-opacity:1"
       id="path60" /><text
       transform="matrix(1,0,0,-1,19.174191,23.748168)"
       style="font-variant:normal;font-size:7.97011px;font-family:'Nimbus Sans L';-inkscape-font-specification:NimbusSanL-Regu;writing-mode:lr-tb;fill:#262626;fill-opacity:1;fill-rule:nonzero;stroke:none"
       id="text64"><tspan
         x="0"
         y="0"
         id="tspan62">1</tspan></text><path
       d="m 29.405526,84.679207 h -4.8"
       style="fill:#262626;fill-opacity:1;fill-rule:nonzero;stroke:#262626;stroke-width:1;stroke-linecap:butt;stroke-linejoin:round;stroke-miterlimit:10;stroke-dasharray:none;stroke-opacity:1"
       id="path66" /><text
       transform="matrix(1,0,0,-1,14.742856,81.839879)"
       style="font-variant:normal;font-size:7.97011px;font-family:'Nimbus Sans L';-inkscape-font-specification:NimbusSanL-Regu;writing-mode:lr-tb;fill:#262626;fill-opacity:1;fill-rule:nonzero;stroke:none"
       id="text70"><tspan
         x="0 4.4234123"
         y="0"
         id="tspan68">10</tspan></text><path
       d="m 29.405526,142.77092 h -4.8"
       style="fill:#262626;fill-opacity:1;fill-rule:nonzero;stroke:#262626;stroke-width:1;stroke-linecap:butt;stroke-linejoin:round;stroke-miterlimit:10;stroke-dasharray:none;stroke-opacity:1"
       id="path72" /><text
       transform="matrix(1,0,0,-1,10.311521,139.93159)"
       style="font-variant:normal;font-size:7.97011px;font-family:'Nimbus Sans L';-inkscape-font-specification:NimbusSanL-Regu;writing-mode:lr-tb;fill:#262626;fill-opacity:1;fill-rule:nonzero;stroke:none"
       id="text76"><tspan
         x="0 4.4234123 8.8468246"
         y="0"
         id="tspan74">100</tspan></text><path
       d="m 29.405526,44.074844 h -3.2"
       style="fill:#262626;fill-opacity:1;fill-rule:nonzero;stroke:#262626;stroke-width:0.8;stroke-linecap:butt;stroke-linejoin:round;stroke-miterlimit:10;stroke-dasharray:none;stroke-opacity:1"
       id="path78" /><path
       d="m 29.405526,54.304286 h -3.2"
       style="fill:#262626;fill-opacity:1;fill-rule:nonzero;stroke:#262626;stroke-width:0.8;stroke-linecap:butt;stroke-linejoin:round;stroke-miterlimit:10;stroke-dasharray:none;stroke-opacity:1"
       id="path80" /><path
       d="m 29.405526,61.562191 h -3.2"
       style="fill:#262626;fill-opacity:1;fill-rule:nonzero;stroke:#262626;stroke-width:0.8;stroke-linecap:butt;stroke-linejoin:round;stroke-miterlimit:10;stroke-dasharray:none;stroke-opacity:1"
       id="path82" /><path
       d="m 29.405526,67.19186 h -3.2"
       style="fill:#262626;fill-opacity:1;fill-rule:nonzero;stroke:#262626;stroke-width:0.8;stroke-linecap:butt;stroke-linejoin:round;stroke-miterlimit:10;stroke-dasharray:none;stroke-opacity:1"
       id="path84" /><path
       d="m 29.405526,71.791634 h -3.2"
       style="fill:#262626;fill-opacity:1;fill-rule:nonzero;stroke:#262626;stroke-width:0.8;stroke-linecap:butt;stroke-linejoin:round;stroke-miterlimit:10;stroke-dasharray:none;stroke-opacity:1"
       id="path86" /><path
       d="m 29.405526,75.680687 h -3.2"
       style="fill:#262626;fill-opacity:1;fill-rule:nonzero;stroke:#262626;stroke-width:0.8;stroke-linecap:butt;stroke-linejoin:round;stroke-miterlimit:10;stroke-dasharray:none;stroke-opacity:1"
       id="path88" /><path
       d="m 29.405526,79.049539 h -3.2"
       style="fill:#262626;fill-opacity:1;fill-rule:nonzero;stroke:#262626;stroke-width:0.8;stroke-linecap:butt;stroke-linejoin:round;stroke-miterlimit:10;stroke-dasharray:none;stroke-opacity:1"
       id="path90" /><path
       d="m 29.405526,82.021076 h -3.2"
       style="fill:#262626;fill-opacity:1;fill-rule:nonzero;stroke:#262626;stroke-width:0.8;stroke-linecap:butt;stroke-linejoin:round;stroke-miterlimit:10;stroke-dasharray:none;stroke-opacity:1"
       id="path92" /><path
       d="m 29.405526,102.16656 h -3.2"
       style="fill:#262626;fill-opacity:1;fill-rule:nonzero;stroke:#262626;stroke-width:0.8;stroke-linecap:butt;stroke-linejoin:round;stroke-miterlimit:10;stroke-dasharray:none;stroke-opacity:1"
       id="path94" /><path
       d="m 29.405526,112.396 h -3.2"
       style="fill:#262626;fill-opacity:1;fill-rule:nonzero;stroke:#262626;stroke-width:0.8;stroke-linecap:butt;stroke-linejoin:round;stroke-miterlimit:10;stroke-dasharray:none;stroke-opacity:1"
       id="path96" /><path
       d="m 29.405526,119.6539 h -3.2"
       style="fill:#262626;fill-opacity:1;fill-rule:nonzero;stroke:#262626;stroke-width:0.8;stroke-linecap:butt;stroke-linejoin:round;stroke-miterlimit:10;stroke-dasharray:none;stroke-opacity:1"
       id="path98" /><path
       d="m 29.405526,125.28357 h -3.2"
       style="fill:#262626;fill-opacity:1;fill-rule:nonzero;stroke:#262626;stroke-width:0.8;stroke-linecap:butt;stroke-linejoin:round;stroke-miterlimit:10;stroke-dasharray:none;stroke-opacity:1"
       id="path100" /><path
       d="m 29.405526,129.88335 h -3.2"
       style="fill:#262626;fill-opacity:1;fill-rule:nonzero;stroke:#262626;stroke-width:0.8;stroke-linecap:butt;stroke-linejoin:round;stroke-miterlimit:10;stroke-dasharray:none;stroke-opacity:1"
       id="path102" /><path
       d="m 29.405526,133.7724 h -3.2"
       style="fill:#262626;fill-opacity:1;fill-rule:nonzero;stroke:#262626;stroke-width:0.8;stroke-linecap:butt;stroke-linejoin:round;stroke-miterlimit:10;stroke-dasharray:none;stroke-opacity:1"
       id="path104" /><path
       d="m 29.405526,137.14125 h -3.2"
       style="fill:#262626;fill-opacity:1;fill-rule:nonzero;stroke:#262626;stroke-width:0.8;stroke-linecap:butt;stroke-linejoin:round;stroke-miterlimit:10;stroke-dasharray:none;stroke-opacity:1"
       id="path106" /><path
       d="m 29.405526,140.11279 h -3.2"
       style="fill:#262626;fill-opacity:1;fill-rule:nonzero;stroke:#262626;stroke-width:0.8;stroke-linecap:butt;stroke-linejoin:round;stroke-miterlimit:10;stroke-dasharray:none;stroke-opacity:1"
       id="path108" /><text
       transform="matrix(0,1,1,0,10.274422,68.635263)"
       style="font-variant:normal;font-size:9.56414px;font-family:'Nimbus Sans L';-inkscape-font-specification:NimbusSanL-Regu;writing-mode:lr-tb;fill:#262626;fill-opacity:1;fill-rule:nonzero;stroke:none"
       id="text112"><tspan
         x="0 4.7820702 10.090168 15.398267 20.706364 26.014462 31.322561"
         y="0"
         id="tspan110">speedup</tspan></text><g
       id="g114"><g
         id="g116"
         clip-path="url(#clipPath120)"><path
           d="m 29.405526,26.587496 14.201554,6.50586 11.015581,4.899394 9.000385,3.890045 7.609718,3.198745 6.591837,2.696928 5.814412,2.317048 5.201169,2.02019 4.70503,1.782366 4.295355,1.587973 3.951343,1.426433 3.65837,1.290323 3.40587,1.17428 3.18597,1.074336 2.99276,0.987493 2.82165,0.911443 2.66906,0.844386 2.53211,0.784892 2.40855,0.731814 2.29648,0.684223 2.19438,0.641358 2.10098,0.602587 2.01519,0.567386 1.93615,0.535314 1.86307,0.505998 1.7953,0.479119 1.7323,0.454407 1.67357,0.431627 1.61868,0.410576 1.56729,0.391081 1.51906,0.372984 1.4737,0.356154 1.43099,0.34047 1.39066,0.32583 1.35257,0.31214 1.31649,0.299316 1.28229,0.287288 1.24982,0.275987 1.21896,0.265357 1.18959,0.255341 1.16159,0.245896 1.13489,0.236976 1.10939,0.228543 1.08499,0.220561 1.06167,0.212997 1.03931,0.205824 1.01788,0.199013 0.99731,0.192541 0.97757,0.186385 0.95858,0.180524 0.94032,0.17494 0.92275,0.169615 0.90581,0.164534 0.8895,0.15968 0.87374,0.155041 0.85855,0.150604 0.84388,0.146358 0.82969,0.142291 0.81598,0.138394 0.8027,0.134656 0.78987,0.131069 0.77742,0.127627 0.76537,0.124318 0.75369,0.12114 0.74235,0.118081 0.73135,0.11514 0.72068,0.112307 0.71031,0.10958 0.70023,0.10695 0.69043,0.104416 0.68092,0.101972 0.67165,0.09961 0.66263,0.09734 0.65386,0.09514 0.64531,0.09301 0.63698,0.09096 0.62887,0.08897 0.62095,0.08705 0.61325,0.08519 0.60572,0.08339 0.59837,0.08165 0.59121,0.07996 0.58422,0.07832 0.57738,0.07674 0.5707,0.0752 0.56418,0.07371 0.55781,0.07226 0.55158,0.07086 0.54548,0.06949 0.53951,0.06817 0.53369,0.06688 0.52798,0.06563 0.52239,0.06441 0.51692,0.06323 0.51156,0.06208 0.50632,0.06096 0.50118,0.05987 0.49614,0.05881"
           style="fill:none;stroke:#294079;stroke-width:1.2;stroke-linecap:round;stroke-linejoin:round;stroke-miterlimit:10;stroke-dasharray:none;stroke-opacity:1"
           id="path122" /></g></g><g
       id="g124"><g
         id="g126"
         clip-path="url(#clipPath130)"><path
           d="m 29.405526,26.587496 14.201554,7.148389 11.015581,5.520626 9.000385,4.491201 7.609718,3.780946 6.591837,3.261205 5.814412,2.864348 5.201169,2.551395 4.70503,2.298286 4.295355,2.089362 3.951343,1.913992 3.65837,1.764704 3.40587,1.63609 3.18597,1.524143 2.99276,1.425827 2.82165,1.338803 2.66906,1.261237 2.53211,1.19167 2.40855,1.128933 2.29648,1.072071 2.19438,1.020298 2.10098,0.972965 2.01519,0.929528 1.93615,0.889527 1.86307,0.852573 1.7953,0.818333 1.7323,0.786522 1.67357,0.75689 1.61868,0.729225 1.56729,0.703338 1.51906,0.679064 1.4737,0.656261 1.43099,0.634797 1.39066,0.614562 1.35257,0.595453 1.31649,0.57738 1.28229,0.560261 1.24982,0.544027 1.21896,0.528607 1.18959,0.513946 1.16159,0.499989 1.13489,0.486688 1.10939,0.473996 1.08499,0.461876 1.06167,0.450289 1.03931,0.439201 1.01788,0.428583 0.99731,0.418405 0.97757,0.408641 0.95858,0.399265 0.94032,0.390258 0.92275,0.381597 0.90581,0.373264 0.8895,0.36524 0.87374,0.357508 0.85855,0.350056 0.84388,0.342865 0.82969,0.335926 0.81598,0.329223 0.8027,0.322747 0.78987,0.316485 0.77742,0.310427 0.76537,0.304566 0.75369,0.29889 0.74235,0.293392 0.73135,0.288063 0.72068,0.282897 0.71031,0.277885 0.70023,0.273022 0.69043,0.268305 0.68092,0.26371 0.67165,0.25926 0.66263,0.25494 0.65386,0.25072 0.64531,0.24664 0.63698,0.24264 0.62887,0.23878 0.62095,0.235 0.61325,0.23132 0.60572,0.22775 0.59837,0.22426 0.59121,0.22086 0.58422,0.21754 0.57738,0.21432 0.5707,0.21115 0.56418,0.20809 0.55781,0.20507 0.55158,0.20215 0.54548,0.19928 0.53951,0.19648 0.53369,0.19375 0.52798,0.19108 0.52239,0.18847 0.51692,0.18592 0.51156,0.18342 0.50632,0.18099 0.50118,0.17859 0.49614,0.17626"
           style="fill:none;stroke:#8ec291;stroke-width:1.2;stroke-linecap:round;stroke-linejoin:round;stroke-miterlimit:10;stroke-dasharray:none;stroke-opacity:1"
           id="path132" /></g></g><g
       id="g134"><path
         d="m 209.68768,23.665322 3.64206,5.844348"
         style="fill:none;stroke:#191919;stroke-width:1.2;stroke-linecap:round;stroke-linejoin:round;stroke-miterlimit:10;stroke-dasharray:none;stroke-opacity:1"
         id="path136" /><path
         d="m 209.68768,144.44852 3.64206,5.84435"
         style="fill:none;stroke:#191919;stroke-width:1.2;stroke-linecap:round;stroke-linejoin:round;stroke-miterlimit:10;stroke-dasharray:none;stroke-opacity:1"
         id="path138" /><path
         d="M 29.405526,26.587496 V 147.37069"
         style="fill:none;stroke:#262626;stroke-width:1;stroke-linecap:square;stroke-linejoin:miter;stroke-miterlimit:10;stroke-dasharray:none;stroke-opacity:1"
         id="path140" /><path
         d="M 29.405526,26.587496 H 211.50871"
         style="fill:none;stroke:#262626;stroke-width:1;stroke-linecap:square;stroke-linejoin:miter;stroke-miterlimit:10;stroke-dasharray:none;stroke-opacity:1"
         id="path142" /><path
         d="M 29.405526,147.37069 H 211.50871"
         style="fill:none;stroke:#262626;stroke-width:1;stroke-linecap:square;stroke-linejoin:miter;stroke-miterlimit:10;stroke-dasharray:none;stroke-opacity:1"
         id="path144" /><path
         d="m 37.325526,136.28417 h 8.8 8.8"
         style="fill:none;stroke:#294079;stroke-width:1.2;stroke-linecap:round;stroke-linejoin:round;stroke-miterlimit:10;stroke-dasharray:none;stroke-opacity:1"
         id="path146" /><text
         transform="matrix(1,0,0,-1,61.965526,133.20417)"
         style="font-variant:normal;font-size:8.76713px;font-family:'Nimbus Sans L';-inkscape-font-specification:NimbusSanL-Regu;writing-mode:lr-tb;fill:#262626;fill-opacity:1;fill-rule:nonzero;stroke:none"
         id="text150"><tspan
           x="0 6.1896787 11.055434 13.483928 18.349684"
           y="0"
           id="tspan148">water</tspan></text><path
         d="m 37.325526,123.77031 h 8.8 8.8"
         style="fill:none;stroke:#8ec291;stroke-width:1.2;stroke-linecap:round;stroke-linejoin:round;stroke-miterlimit:10;stroke-dasharray:none;stroke-opacity:1"
         id="path152" /><text
         transform="matrix(1,0,0,-1,61.965526,120.69031)"
         style="font-variant:normal;font-size:8.76713px;font-family:'Nimbus Sans L';-inkscape-font-specification:NimbusSanL-Regu;writing-mode:lr-tb;fill:#262626;fill-opacity:1;fill-rule:nonzero;stroke:none"
         id="text156"><tspan
           x="0 6.3210979 10.704661 16.543568 21.409323"
           y="0"
           id="tspan154">CsSnI</tspan></text><text
         transform="matrix(1,0,0,-1,85.838146,119.38665)"
         style="font-variant:normal;font-size:6.13696px;font-family:'Nimbus Sans L';-inkscape-font-specification:NimbusSanL-Regu;writing-mode:lr-tb;fill:#262626;fill-opacity:1;fill-rule:nonzero;stroke:none"
         id="text160"><tspan
           x="0"
           y="0"
           id="tspan158">3</tspan></text><path
         d="m 214.69552,26.587496 h 30.35053 V 147.37069 h -30.35053 z"
         style="fill:#ffffff;fill-opacity:1;fill-rule:nonzero;stroke:none"
         id="path162" /><path
         d="m 229.87078,26.587496 v -4.8"
         style="fill:#262626;fill-opacity:1;fill-rule:nonzero;stroke:#262626;stroke-width:1;stroke-linecap:butt;stroke-linejoin:round;stroke-miterlimit:10;stroke-dasharray:none;stroke-opacity:1"
         id="path164" /><text
         transform="matrix(1,0,0,-1,225.6366,15.10884)"
         style="font-style:italic;font-variant:normal;font-weight:normal;font-size:7.97011px;font-family:'Computer Modern';-inkscape-font-specification:CMSY8;writing-mode:lr-tb;fill:#262626;fill-opacity:1;fill-rule:nonzero;stroke:none"
         id="text168"><tspan
           x="0"
           y="0"
           id="tspan166">∞</tspan></text></g><g
       id="g170"><g
         id="g172"
         clip-path="url(#clipPath176)"><path
           d="m 227.47078,84.721644 4.8,4.8 m -4.8,0 4.8,-4.8"
           style="fill:#294079;fill-opacity:1;fill-rule:nonzero;stroke:#294079;stroke-width:1.2;stroke-linecap:butt;stroke-linejoin:round;stroke-miterlimit:10;stroke-dasharray:none;stroke-opacity:1"
           id="path178" /></g></g><g
       id="g180"><g
         id="g182"
         clip-path="url(#clipPath186)"><path
           d="m 227.47078,133.65305 4.8,4.8 m -4.8,0 4.8,-4.8"
           style="fill:#8ec291;fill-opacity:1;fill-rule:nonzero;stroke:#8ec291;stroke-width:1.2;stroke-linecap:butt;stroke-linejoin:round;stroke-miterlimit:10;stroke-dasharray:none;stroke-opacity:1"
           id="path188" /></g></g><g
       id="g190"><path
         d="m 212.87448,144.44852 3.64207,5.84435"
         style="fill:none;stroke:#191919;stroke-width:1.2;stroke-linecap:round;stroke-linejoin:round;stroke-miterlimit:10;stroke-dasharray:none;stroke-opacity:1"
         id="path192" /><path
         d="m 212.87448,23.665322 3.64207,5.844348"
         style="fill:none;stroke:#191919;stroke-width:1.2;stroke-linecap:round;stroke-linejoin:round;stroke-miterlimit:10;stroke-dasharray:none;stroke-opacity:1"
         id="path194" /><path
         d="M 245.04605,26.587496 V 147.37069"
         style="fill:none;stroke:#262626;stroke-width:1;stroke-linecap:square;stroke-linejoin:miter;stroke-miterlimit:10;stroke-dasharray:none;stroke-opacity:1"
         id="path196" /><path
         d="m 214.69552,26.587496 h 30.35053"
         style="fill:none;stroke:#262626;stroke-width:1;stroke-linecap:square;stroke-linejoin:miter;stroke-miterlimit:10;stroke-dasharray:none;stroke-opacity:1"
         id="path198" /><path
         d="m 214.69552,147.37069 h 30.35053"
         style="fill:none;stroke:#262626;stroke-width:1;stroke-linecap:square;stroke-linejoin:miter;stroke-miterlimit:10;stroke-dasharray:none;stroke-opacity:1"
         id="path200" /><text
         transform="matrix(1,0,0,-1,79.801432,3.038571)"
         style="font-variant:normal;font-size:9.56414px;font-family:'Nimbus Sans L';-inkscape-font-specification:NimbusSanL-Regu;writing-mode:lr-tb;fill:#262626;fill-opacity:1;fill-rule:nonzero;stroke:none"
         id="text204"><tspan
           x="0 2.649267 7.957365 10.606632 15.91473 20.687136 25.995234 31.303331 39.260696 44.568794 49.876892 55.615284 60.923382 66.231377 71.013451 76.321548 81.629646 86.937744 91.719818 97.027916 102.33601 104.98528"
           y="0"
           id="tspan202">totalnumberofsnapshots</tspan></text></g></g></svg>
